<?xml version="1.0" encoding="UTF-8" standalone="no"?>
<!DOCTYPE svg PUBLIC "-//W3C//DTD SVG 1.1//EN" "http://www.w3.org/Graphics/SVG/1.1/DTD/svg11.dtd">
<svg width="100%" height="100%" viewBox="0 0 64 64" version="1.1" xmlns="http://www.w3.org/2000/svg" xmlns:xlink="http://www.w3.org/1999/xlink" xml:space="preserve" xmlns:serif="http://www.serif.com/" style="fill-rule:evenodd;clip-rule:evenodd;stroke-linecap:round;stroke-linejoin:round;stroke-miterlimit:1.5;">
    <rect id="Artboard1" x="0" y="0" width="64" height="64" style="fill:none;"/>
    <g id="Artboard11" serif:id="Artboard1">
        <g transform="matrix(1.97438,0,0,1.97438,-1032.16,-32.5038)">
            <path d="M550.707,16.463C553.183,16.463 555.191,18.47 555.191,20.946L555.191,44.394C555.191,46.871 553.183,48.878 550.707,48.878L527.259,48.878C524.783,48.878 522.775,46.871 522.775,44.394L522.775,20.946C522.775,18.47 524.783,16.463 527.259,16.463L550.707,16.463Z" style="fill:rgb(240,240,240);"/>
        </g>
        <g id="icons8-instagram.svg" transform="matrix(0.745983,0,0,0.745983,32,32)">
            <g transform="matrix(1,0,0,1,-25,-25)">
                <path d="M34.095,3C41.222,3 47,8.778 47,15.905L47,34.095C47,41.222 41.222,47 34.095,47L15.905,47C8.778,47 3,41.222 3,34.095L3,15.905C3,8.778 8.778,3 15.905,3L34.095,3Z" style="fill:rgb(22,22,25);stroke:rgb(22,22,25);stroke-width:2.56px;"/>
                <path d="M37,11C35.903,11 35,11.903 35,13C35,14.097 35.903,15 37,15C38.097,15 39,14.097 39,13C39,11.903 38.097,11 37,11ZM25,14C18.937,14 14,18.937 14,25C14,31.063 18.937,36 25,36C31.063,36 36,31.063 36,25C36,18.937 31.063,14 25,14ZM25,16C29.982,16 34,20.018 34,25C34,29.982 29.982,34 25,34C20.018,34 16,29.982 16,25C16,20.018 20.018,16 25,16Z" style="fill:rgb(240,240,240);fill-rule:nonzero;"/>
            </g>
        </g>
    </g>
</svg>
