<?xml version="1.0" encoding="UTF-8" standalone="no"?>
<!DOCTYPE svg PUBLIC "-//W3C//DTD SVG 1.1//EN" "http://www.w3.org/Graphics/SVG/1.1/DTD/svg11.dtd">
<svg width="100%" height="100%" viewBox="0 0 64 64" version="1.1" xmlns="http://www.w3.org/2000/svg" xmlns:xlink="http://www.w3.org/1999/xlink" xml:space="preserve" xmlns:serif="http://www.serif.com/" style="fill-rule:evenodd;clip-rule:evenodd;stroke-linejoin:round;stroke-miterlimit:2;">
    <g transform="matrix(1,0,0,1,-342,0)">
        <rect id="Artboard4" x="342" y="0" width="64" height="64" style="fill:none;"/>
        <clipPath id="_clip1">
            <rect id="Artboard41" serif:id="Artboard4" x="342" y="0" width="64" height="64"/>
        </clipPath>
        <g clip-path="url(#_clip1)">
            <g transform="matrix(1.97438,0,0,1.97438,-690.158,-32.6177)">
                <path d="M550.707,16.463C553.183,16.463 555.191,18.47 555.191,20.946L555.191,44.394C555.191,46.871 553.183,48.878 550.707,48.878L527.259,48.878C524.783,48.878 522.775,46.871 522.775,44.394L522.775,20.946C522.775,18.47 524.783,16.463 527.259,16.463L550.707,16.463Z" style="fill:rgb(240,240,240);"/>
                <clipPath id="_clip2">
                    <path d="M550.707,16.463C553.183,16.463 555.191,18.47 555.191,20.946L555.191,44.394C555.191,46.871 553.183,48.878 550.707,48.878L527.259,48.878C524.783,48.878 522.775,46.871 522.775,44.394L522.775,20.946C522.775,18.47 524.783,16.463 527.259,16.463L550.707,16.463Z"/>
                </clipPath>
                <g clip-path="url(#_clip2)">
                    <g transform="matrix(1.20374,0,0,1.20374,-81.2645,-15.3267)">
                        <path d="M508.604,39.873C508.604,36.197 511.588,33.212 515.265,33.212C518.941,33.212 521.926,36.197 521.926,39.873C521.926,43.55 518.941,46.534 515.265,46.534C511.588,46.534 508.604,43.55 508.604,39.873ZM513.365,34.539C511.768,35.109 510.501,36.376 509.931,37.973C509.968,37.951 510.005,37.928 510.044,37.906C510.667,37.548 511.491,37.253 512.446,37.054C512.645,36.099 512.94,35.275 513.298,34.652C513.32,34.614 513.342,34.576 513.365,34.539ZM520.599,37.973C520.029,36.376 518.762,35.109 517.165,34.539C517.187,34.576 517.21,34.614 517.232,34.652C517.59,35.275 517.885,36.099 518.084,37.054C519.039,37.253 519.863,37.548 520.486,37.906C520.524,37.928 520.562,37.951 520.599,37.973ZM517.165,45.207C518.762,44.638 520.029,43.37 520.599,41.773C520.562,41.796 520.524,41.818 520.486,41.84C519.863,42.198 519.039,42.493 518.084,42.692C517.885,43.647 517.59,44.471 517.232,45.094C517.21,45.133 517.187,45.17 517.165,45.207ZM509.931,41.773C510.501,43.37 511.768,44.638 513.365,45.207C513.342,45.17 513.32,45.133 513.298,45.094C512.94,44.471 512.645,43.647 512.446,42.692C511.491,42.493 510.667,42.198 510.044,41.84C510.005,41.818 509.968,41.796 509.931,41.773ZM517.023,36.88C516.855,36.203 516.632,35.615 516.365,35.15C516.045,34.593 515.692,34.212 515.265,34.212C514.838,34.212 514.485,34.593 514.165,35.15C513.898,35.615 513.674,36.203 513.507,36.88C514.066,36.812 514.656,36.776 515.265,36.776C515.874,36.776 516.464,36.812 517.023,36.88ZM512.272,38.115C511.595,38.283 511.006,38.506 510.542,38.773C509.985,39.093 509.604,39.446 509.604,39.873C509.604,40.3 509.985,40.653 510.542,40.973C511.006,41.24 511.595,41.464 512.272,41.631C512.204,41.072 512.168,40.483 512.168,39.873C512.168,39.264 512.204,38.674 512.272,38.115ZM518.258,41.631C518.935,41.464 519.523,41.24 519.988,40.973C520.545,40.653 520.926,40.3 520.926,39.873C520.926,39.446 520.545,39.093 519.988,38.773C519.523,38.506 518.935,38.283 518.258,38.115C518.326,38.674 518.362,39.264 518.362,39.873C518.362,40.483 518.326,41.072 518.258,41.631ZM513.507,42.866C513.674,43.543 513.898,44.132 514.165,44.596C514.485,45.153 514.838,45.534 515.265,45.534C515.692,45.534 516.045,45.153 516.365,44.596C516.632,44.132 516.855,43.543 517.023,42.866C516.464,42.934 515.874,42.97 515.265,42.97C514.656,42.97 514.066,42.934 513.507,42.866ZM517.224,37.914C516.611,37.824 515.952,37.776 515.265,37.776C514.578,37.776 513.919,37.824 513.306,37.914C513.216,38.527 513.168,39.186 513.168,39.873C513.168,40.56 513.216,41.219 513.306,41.832C513.919,41.922 514.578,41.97 515.265,41.97C515.952,41.97 516.611,41.922 517.224,41.832C517.314,41.219 517.362,40.56 517.362,39.873C517.362,39.186 517.314,38.527 517.224,37.914Z" style="fill:rgb(22,22,25);"/>
                    </g>
                </g>
            </g>
        </g>
    </g>
</svg>
